<?xml version="1.0" standalone="no"?>
<!DOCTYPE svg PUBLIC "-//W3C//DTD SVG 20010904//EN"
 "http://www.w3.org/TR/2001/REC-SVG-20010904/DTD/svg10.dtd">
<svg version="1.0" xmlns="http://www.w3.org/2000/svg"
 width="582.000000pt" height="577.000000pt" viewBox="0 0 582.000000 577.000000"
 preserveAspectRatio="xMidYMid meet">

<g transform="translate(0.000000,577.000000) scale(0.100000,-0.100000)"
fill="#000000" stroke="none">
<path d="M768 5663 c-39 -42 -116 -159 -152 -232 -249 -497 -49 -1084 503
-1478 107 -78 211 -140 446 -268 531 -291 851 -586 1034 -953 87 -177 129
-321 138 -475 3 -59 9 -107 14 -107 10 0 68 139 91 220 26 86 34 249 19 345
-40 247 -187 485 -464 752 -197 188 -402 336 -722 518 -232 132 -343 205 -457
303 -231 196 -375 439 -443 743 -26 116 -31 384 -10 510 9 56 21 113 26 126
11 29 8 29 -23 -4z"/>
<path d="M5093 5620 c7 -24 13 -36 15 -26 3 15 12 9 44 -25 46 -49 18 -7 -36
55 l-34 40 11 -44z"/>
<path d="M5111 5544 c0 -11 3 -14 6 -6 3 7 2 16 -1 19 -3 4 -6 -2 -5 -13z"/>
<path d="M5122 5490 c0 -19 2 -27 5 -17 2 9 2 25 0 35 -3 9 -5 1 -5 -18z"/>
<path d="M5199 5505 c5 -11 17 -29 26 -40 l16 -20 -10 20 c-5 11 -17 29 -26
40 l-16 20 10 -20z"/>
<path d="M5132 5314 c-1 -72 -4 -153 -7 -180 l-4 -49 10 48 c5 26 8 107 6 180
l-3 132 -2 -131z"/>
<path d="M5311 5270 c0 -8 4 -24 9 -35 5 -13 9 -14 9 -5 0 8 -4 24 -9 35 -5
13 -9 14 -9 5z"/>
<path d="M5331 5194 c0 -11 3 -14 6 -6 3 7 2 16 -1 19 -3 4 -6 -2 -5 -13z"/>
<path d="M5342 5150 c0 -14 2 -19 5 -12 2 6 2 18 0 25 -3 6 -5 1 -5 -13z"/>
<path d="M5354 4985 c0 -66 1 -92 3 -57 2 34 2 88 0 120 -2 31 -3 3 -3 -63z"/>
<path d="M5112 5055 c0 -16 2 -22 5 -12 2 9 2 23 0 30 -3 6 -5 -1 -5 -18z"/>
<path d="M5101 5004 c0 -11 3 -14 6 -6 3 7 2 16 -1 19 -3 4 -6 -2 -5 -13z"/>
<path d="M5091 4964 c0 -11 3 -14 6 -6 3 7 2 16 -1 19 -3 4 -6 -2 -5 -13z"/>
<path d="M5062 4873 c-15 -48 -8 -55 8 -8 7 20 10 38 8 41 -3 2 -10 -13 -16
-33z"/>
<path d="M5342 4825 c0 -16 2 -22 5 -12 2 9 2 23 0 30 -3 6 -5 -1 -5 -18z"/>
<path d="M5037 4808 c-3 -7 -12 -30 -21 -50 -9 -21 -14 -38 -12 -38 7 0 47 92
42 97 -2 2 -6 -2 -9 -9z"/>
<path d="M323 4699 c-70 -176 -87 -328 -58 -520 42 -282 226 -558 500 -753
123 -88 214 -134 395 -201 249 -91 259 -95 393 -162 124 -63 289 -164 335
-206 12 -11 22 -16 22 -10 0 25 -90 144 -178 235 -121 126 -256 234 -442 355
-331 217 -394 265 -531 405 -185 189 -310 409 -364 638 -10 41 -20 131 -24
200 l-6 125 -42 -106z"/>
<path d="M5331 4764 c0 -11 3 -14 6 -6 3 7 2 16 -1 19 -3 4 -6 -2 -5 -13z"/>
<path d="M5540 4753 c0 -13 5 -23 10 -23 13 0 13 11 0 30 -8 12 -10 11 -10 -7z"/>
<path d="M5316 4714 c-4 -14 -5 -28 -3 -31 3 -2 8 8 11 23 4 14 5 28 3 31 -3
2 -8 -8 -11 -23z"/>
<path d="M5541 4704 c0 -11 3 -14 6 -6 3 7 2 16 -1 19 -3 4 -6 -2 -5 -13z"/>
<path d="M5561 4704 c0 -11 3 -14 6 -6 3 7 2 16 -1 19 -3 4 -6 -2 -5 -13z"/>
<path d="M4984 4692 c-6 -9 -21 -35 -34 -56 -13 -22 -19 -36 -13 -33 13 8 66
97 61 102 -2 2 -8 -4 -14 -13z"/>
<path d="M5532 4645 c0 -16 2 -22 5 -12 2 9 2 23 0 30 -3 6 -5 -1 -5 -18z"/>
<path d="M3070 4654 c-100 -20 -220 -76 -380 -180 -39 -25 -101 -59 -138 -77
-57 -27 -78 -32 -147 -32 -94 0 -164 27 -235 91 l-43 39 6 -35 c13 -68 79
-183 136 -240 60 -60 153 -114 214 -125 20 -4 39 -10 41 -14 2 -3 -13 -42 -35
-86 -39 -81 -72 -203 -84 -311 l-7 -60 94 -89 93 -89 7 111 c13 208 85 424
194 581 24 35 44 64 44 65 0 1 -51 2 -112 2 -68 0 -131 6 -158 14 l-45 14 80
18 c112 25 152 40 294 115 143 76 217 104 275 104 l41 -1 -28 -24 c-15 -14
-27 -25 -25 -25 2 0 32 9 66 20 80 25 222 28 222 5 0 -8 -6 -12 -13 -9 -31 12
-272 -135 -253 -154 8 -8 -15 -33 -25 -27 -10 7 -62 -63 -94 -125 -57 -113
-77 -227 -63 -358 14 -129 50 -237 149 -446 148 -311 178 -401 186 -561 7
-140 -17 -248 -88 -385 -42 -81 -199 -310 -214 -310 -6 0 9 39 35 90 113 222
166 539 122 736 -28 126 -73 237 -138 341 -71 113 -79 120 -55 51 42 -122 56
-217 55 -383 0 -259 -53 -473 -173 -708 -67 -130 -121 -211 -279 -420 -182
-239 -234 -318 -281 -418 -61 -131 -75 -194 -75 -344 0 -122 2 -135 32 -214
58 -152 131 -267 254 -395 l58 -61 -44 95 c-69 148 -80 200 -80 380 0 150 1
158 33 254 85 247 269 467 661 793 115 95 233 202 268 244 164 191 245 417
228 638 -8 111 -17 162 -26 156 -5 -3 -6 3 -4 13 5 15 -21 99 -58 191 l-13 33
82 78 c97 92 269 223 403 305 117 72 136 89 50 44 -36 -19 -67 -37 -70 -40 -3
-4 -32 -24 -65 -44 -33 -21 -88 -61 -123 -87 -34 -27 -68 -46 -74 -42 -6 4 -8
3 -4 -4 3 -6 -6 -20 -21 -31 -21 -17 -28 -19 -36 -9 -6 9 -7 8 -3 -4 6 -21
-61 -78 -83 -70 -10 3 -12 0 -8 -12 4 -11 3 -15 -4 -11 -6 4 -8 13 -5 20 7 20
-5 26 -23 13 -13 -10 -14 -10 -3 2 15 18 16 34 0 24 -7 -4 -8 -3 -4 5 4 6 11
9 16 6 4 -3 7 17 5 43 -2 33 1 49 10 49 7 0 11 -10 10 -21 -1 -12 -3 -21 -4
-21 -2 0 -4 -8 -6 -17 -3 -18 21 -45 32 -34 3 3 1 6 -5 6 -15 0 -16 26 -2 35
6 4 7 -1 4 -12 -5 -17 -5 -17 9 -1 11 14 16 15 27 5 12 -10 12 -9 1 5 -7 10
-17 15 -22 13 -4 -3 -12 3 -18 12 -7 14 -4 24 12 42 12 13 16 21 8 16 -11 -6
-13 -4 -8 9 4 9 3 14 -2 11 -5 -3 -13 -1 -16 5 -5 8 -11 7 -21 -1 -8 -6 -14
-8 -14 -3 0 5 -7 1 -14 -8 -12 -16 -14 -16 -24 7 -7 15 -8 25 -2 25 6 0 10 -8
11 -17 0 -15 2 -15 9 2 5 11 9 16 9 12 1 -4 9 -3 19 2 12 6 23 7 30 1 9 -7 9
-7 2 2 -5 6 -18 13 -27 14 -10 2 -19 8 -21 14 -3 7 -10 4 -19 -7 -13 -17 -14
-17 -9 0 3 9 1 17 -4 17 -6 0 -10 -8 -10 -18 0 -10 -6 -24 -12 -31 -10 -11
-10 -13 0 -7 7 4 12 1 12 -8 0 -9 0 -19 0 -23 0 -5 -12 -8 -27 -8 -16 1 -27 6
-26 13 2 7 -2 12 -8 12 -5 0 -7 5 -4 10 4 6 14 1 24 -11 12 -15 20 -19 25 -11
4 7 1 12 -8 12 -20 0 -20 9 1 32 9 10 11 18 5 18 -6 0 -13 -6 -15 -12 -3 -8
-6 -8 -6 -2 -1 11 105 123 169 179 19 17 72 57 118 88 79 56 112 86 55 50
-128 -79 -327 -257 -378 -335 -9 -16 -20 -28 -24 -28 -3 0 -21 27 -39 60 -18
33 -38 59 -44 57 -6 -1 -13 5 -15 13 -4 13 -3 13 6 0 14 -20 14 -7 0 24 -7 14
-16 23 -22 19 -6 -3 -7 -2 -4 4 9 14 -27 105 -38 96 -4 -5 -5 -3 -2 4 4 6 0
37 -8 69 -30 117 -10 277 45 359 25 37 26 58 1 26 -13 -16 -18 -19 -18 -7 0
14 9 21 32 25 6 1 35 26 65 55 68 67 149 112 232 131 l63 15 -57 -5 c-31 -3
-58 -2 -61 3 -2 4 -2 1 0 -6 1 -8 -3 -12 -9 -10 -17 6 -16 44 1 40 7 -1 10 2
7 7 -4 5 2 14 11 20 10 6 13 11 7 11 -17 0 -52 -44 -49 -63 4 -22 -111 -104
-118 -84 -3 7 -6 5 -6 -5 -1 -9 -6 -20 -12 -24 -9 -5 -10 1 -5 20 5 20 3 26
-5 21 -6 -4 -9 -18 -6 -31 2 -14 0 -21 -6 -17 -6 3 -7 2 -4 -4 4 -6 -6 -21
-21 -34 -14 -13 -20 -16 -13 -6 7 9 10 17 6 17 -5 0 -1 8 7 18 9 9 19 32 23
50 4 18 11 30 16 27 5 -4 5 3 0 17 -6 15 -5 31 1 42 7 12 7 21 -1 29 -8 8 -11
5 -11 -10 0 -26 -31 -55 -38 -35 -3 10 -7 10 -20 0 -15 -11 -15 -11 -5 3 7 9
10 18 7 22 -9 8 75 49 89 43 9 -3 9 -5 0 -5 -7 -1 -13 -6 -13 -12 0 -5 4 -7
10 -4 6 4 6 -3 0 -21 -9 -24 -9 -25 5 -14 12 10 15 10 15 0 0 -8 2 -11 5 -8 3
3 1 17 -5 32 -9 25 -8 27 12 22 13 -3 17 -3 10 0 -17 8 -5 24 18 24 10 0 21 6
23 13 4 10 6 10 6 0 1 -18 21 -16 21 2 0 8 -4 15 -10 15 -5 0 -10 5 -10 11 0
5 5 7 10 4 6 -3 10 1 10 9 0 22 -4 31 -12 29 -4 -2 -5 7 -3 18 3 16 0 20 -18
17 -12 -2 -21 -8 -20 -15 1 -6 -8 -19 -20 -29 -18 -16 -20 -16 -8 -1 7 9 10
17 6 17 -4 0 -2 6 4 13 6 8 8 16 6 19 -8 8 85 3 120 -6 38 -10 115 -46 137
-64 10 -8 15 -19 11 -25 -3 -6 -1 -7 5 -3 7 4 33 -16 63 -46 44 -44 48 -53 33
-58 -15 -6 -14 -8 8 -12 24 -4 26 -3 17 13 -23 44 -123 138 -176 166 -75 40
-127 54 -210 54 -54 1 -73 5 -97 24 -60 44 -205 74 -286 59z m407 -136 c-3 -8
-6 -5 -6 6 -1 11 2 17 5 13 3 -3 4 -12 1 -19z m-102 -46 c-3 -3 -11 0 -18 7
-9 10 -8 11 6 5 10 -3 15 -9 12 -12z m-12 -167 c-9 -14 -12 -14 -33 3 -17 14
-19 19 -7 19 9 0 14 -4 11 -9 -3 -4 2 -8 10 -8 9 0 15 3 15 8 -3 15 3 26 7 15
3 -7 1 -19 -3 -28z m-123 21 c0 -2 -8 -10 -17 -17 -16 -13 -17 -12 -4 4 13 16
21 21 21 13z m27 -11 c0 -8 -4 -12 -9 -9 -5 3 -6 10 -3 15 9 13 12 11 12 -6z
m14 -42 c13 -16 12 -17 -3 -4 -17 13 -22 21 -14 21 2 0 10 -8 17 -17z m58 1
c4 3 8 -1 8 -9 0 -10 -4 -12 -12 -5 -7 5 -15 7 -19 3 -4 -4 -4 1 0 12 5 11 9
14 12 7 2 -7 7 -10 11 -8z m-15 -45 c-3 -5 -10 -7 -15 -3 -5 3 -7 10 -3 15 3
5 10 7 15 3 5 -3 7 -10 3 -15z m-174 7 c0 -2 -8 -10 -17 -17 -16 -13 -17 -12
-4 4 13 16 21 21 21 13z m93 -141 c-3 -9 -8 -14 -10 -11 -3 3 -2 9 2 15 9 16
15 13 8 -4z m321 -633 c3 -5 -1 -9 -9 -9 -8 0 -12 4 -9 9 3 4 7 8 9 8 2 0 6
-4 9 -8z m49 -75 c-4 -6 -10 -2 -14 9 -4 10 -8 13 -8 7 -1 -7 -6 -12 -13 -10
-6 1 -15 -9 -19 -23 -6 -23 -7 -23 -8 -3 -1 12 4 25 9 28 6 4 7 11 4 17 -4 6
-2 8 4 4 6 -3 14 -1 18 5 5 9 11 7 20 -6 7 -10 10 -23 7 -28z m-78 -27 c4 -6
1 -9 -7 -8 -7 2 -12 -3 -10 -11 3 -12 0 -12 -12 -1 -17 14 -22 25 -7 15 5 -3
12 -1 16 5 8 13 12 13 20 0z m25 -56 c0 -8 -19 -13 -24 -6 -3 5 1 9 9 9 8 0
15 -2 15 -3z"/>
<path d="M5592 4600 c0 -14 2 -19 5 -12 2 6 2 18 0 25 -3 6 -5 1 -5 -13z"/>
<path d="M5522 4580 c0 -14 2 -19 5 -12 2 6 2 18 0 25 -3 6 -5 1 -5 -13z"/>
<path d="M4906 4566 c-9 -14 -36 -51 -62 -83 l-45 -58 48 52 c44 47 91 113 80
113 -3 0 -12 -11 -21 -24z"/>
<path d="M5602 4550 c0 -14 4 -38 8 -55 7 -27 8 -27 8 -5 0 14 -4 39 -8 55 -7
27 -8 27 -8 5z"/>
<path d="M5256 4545 c-9 -26 -7 -32 5 -12 6 10 9 21 6 23 -2 3 -7 -2 -11 -11z"/>
<path d="M3520 4538 c0 -5 -6 -6 -12 -2 -7 4 -6 -1 3 -12 11 -12 14 -26 9 -39
-14 -39 -2 -51 48 -50 34 0 47 5 47 15 0 9 8 14 20 12 15 -2 16 0 7 6 -8 5
-13 12 -12 16 1 4 -1 12 -4 19 -3 7 -5 6 -3 -3 1 -8 -3 -15 -8 -15 -6 0 -9 8
-9 17 1 10 -2 15 -7 13 -4 -3 -10 -1 -14 5 -8 13 -25 3 -25 -15 0 -9 8 -12 20
-10 12 2 18 0 15 -6 -4 -5 -10 -7 -15 -4 -5 3 -7 -3 -5 -15 2 -11 0 -22 -6
-25 -5 -4 -9 6 -10 22 0 15 -3 22 -6 16 -7 -18 -20 -16 -20 2 0 8 4 12 9 9 4
-3 8 2 8 11 0 9 -4 14 -9 10 -5 -3 -12 -1 -16 4 -3 6 3 8 15 6 26 -5 26 11 0
18 -11 3 -20 1 -20 -5z m86 -82 c1 -7 -4 -13 -11 -13 -7 0 -11 7 -10 16 2 9 4
18 4 20 2 8 15 -10 17 -23z m-56 -8 c0 -6 -6 -5 -15 2 -8 7 -15 14 -15 16 0 2
7 1 15 -2 8 -4 15 -11 15 -16z"/>
<path d="M5506 4519 c-8 -42 0 -50 9 -9 4 17 5 34 2 36 -2 3 -7 -10 -11 -27z"/>
<path d="M5225 4480 c-9 -16 -13 -30 -11 -30 3 0 12 14 21 30 9 17 13 30 11
30 -3 0 -12 -13 -21 -30z"/>
<path d="M5624 4335 c0 -55 1 -76 3 -47 2 29 2 74 0 100 -2 26 -3 2 -3 -53z"/>
<path d="M3466 4412 c-2 -4 -1 -14 4 -22 7 -11 9 -9 7 8 -1 24 -3 26 -11 14z"/>
<path d="M3579 4398 c-5 -18 -6 -38 -1 -34 7 8 12 36 6 36 -2 0 -4 -1 -5 -2z"/>
<path d="M4735 4358 l-40 -43 43 40 c39 36 47 45 39 45 -2 0 -21 -19 -42 -42z"/>
<path d="M3332 4383 c-10 -4 -10 -8 -1 -19 13 -16 29 -10 29 12 0 15 -6 16
-28 7z"/>
<path d="M3438 4376 c4 -6 7 -14 7 -18 0 -19 11 -14 11 6 0 12 -6 23 -13 23
-6 0 -9 -5 -5 -11z"/>
<path d="M5148 4358 c-16 -17 -28 -33 -28 -36 0 -3 -16 -25 -36 -48 -19 -24
-33 -44 -30 -44 5 0 105 123 120 148 12 20 3 13 -26 -20z"/>
<path d="M3472 4356 c4 -5 2 -16 -5 -25 -11 -14 -10 -15 7 -1 11 8 20 13 22
10 1 -3 6 0 11 5 4 6 4 7 -1 3 -5 -4 -16 -2 -25 4 -9 7 -13 8 -9 4z"/>
<path d="M3708 4353 c18 -2 45 -2 60 0 15 2 0 4 -33 4 -33 0 -45 -2 -27 -4z"/>
<path d="M3395 4331 c-3 -5 -2 -12 3 -15 5 -3 9 1 9 9 0 17 -3 19 -12 6z"/>
<path d="M4625 4264 l-50 -46 53 42 c45 36 59 51 50 50 -2 0 -25 -21 -53 -46z"/>
<path d="M5422 4286 c-17 -37 -15 -45 4 -18 8 12 14 27 12 33 -2 6 -9 -1 -16
-15z"/>
<path d="M3150 4269 c0 -5 5 -7 10 -4 6 3 10 8 10 11 0 2 -4 4 -10 4 -5 0 -10
-5 -10 -11z"/>
<path d="M5612 4205 c0 -16 2 -22 5 -12 2 9 2 23 0 30 -3 6 -5 -1 -5 -18z"/>
<path d="M4513 4181 c-28 -21 -62 -45 -75 -55 l-23 -17 25 12 c29 14 130 87
130 94 0 7 0 7 -57 -34z"/>
<path d="M4945 4123 c-55 -53 -73 -73 -40 -45 58 49 154 142 145 142 -3 -1
-50 -44 -105 -97z"/>
<path d="M5345 4138 c-20 -35 -30 -56 -22 -48 17 18 71 110 64 110 -3 0 -21
-28 -42 -62z"/>
<path d="M5602 4150 c0 -14 2 -19 5 -12 2 6 2 18 0 25 -3 6 -5 1 -5 -13z"/>
<path d="M4317 4055 c-49 -29 -162 -92 -253 -141 -90 -49 -174 -97 -187 -107
-19 -16 -17 -16 13 1 19 11 62 35 95 52 128 69 192 104 248 136 32 19 60 34
62 34 8 0 115 70 115 75 0 7 7 10 -93 -50z"/>
<path d="M5566 4035 c-3 -9 -6 -22 -5 -28 0 -7 5 -1 10 12 5 13 8 26 5 28 -2
2 -6 -3 -10 -12z"/>
<path d="M5269 4023 c-13 -16 -12 -17 4 -4 16 13 21 21 13 21 -2 0 -10 -8 -17
-17z"/>
<path d="M4816 4015 c-11 -8 -17 -17 -14 -20 2 -3 13 4 23 15 21 23 18 25 -9
5z"/>
<path d="M5215 3953 c-21 -27 -28 -39 -16 -28 23 19 66 75 59 75 -2 0 -21 -21
-43 -47z"/>
<path d="M4760 3970 c-14 -11 -29 -20 -33 -20 -5 0 -27 -15 -50 -34 -23 -18
-56 -41 -74 -50 -17 -9 -35 -21 -39 -28 -4 -6 10 -1 32 12 54 33 194 130 194
136 0 7 -4 5 -30 -16z"/>
<path d="M5537 3955 c-24 -50 -20 -58 4 -12 11 22 19 41 17 43 -3 2 -12 -12
-21 -31z"/>
<path d="M5475 3835 c-21 -35 -47 -74 -58 -85 -10 -12 -17 -24 -14 -26 6 -6
74 92 101 144 28 55 11 35 -29 -33z"/>
<path d="M5060 3788 c-52 -50 -72 -73 -45 -50 49 39 154 142 145 142 -3 -1
-48 -42 -100 -92z"/>
<path d="M4518 3814 c-38 -20 -36 -28 2 -9 17 9 30 18 30 20 0 7 -1 6 -32 -11z"/>
<path d="M4445 3777 c-151 -86 -225 -130 -225 -133 0 -3 10 1 23 7 53 28 204
113 222 126 24 16 8 16 -20 0z"/>
<path d="M5611 3752 c-6 -11 -7 -31 -2 -48 7 -27 8 -25 12 19 2 26 3 47 2 47
-1 0 -7 -8 -12 -18z"/>
<path d="M5532 3632 c-63 -89 -213 -246 -312 -325 -30 -24 -107 -81 -170 -127
-160 -115 -353 -272 -343 -279 4 -4 71 -37 149 -75 147 -72 166 -75 209 -41
18 15 17 15 -12 0 -18 -8 -38 -15 -46 -15 -8 0 -76 31 -152 68 l-138 68 47 40
c26 21 70 58 97 82 27 23 53 42 57 42 4 0 21 12 37 26 17 14 50 40 75 57 123
85 317 247 384 320 73 80 191 236 184 243 -2 2 -32 -36 -66 -84z"/>
<path d="M5363 3682 c-71 -88 -186 -191 -303 -269 -39 -25 -70 -48 -70 -50 0
-13 168 107 251 179 62 54 166 168 152 168 -4 0 -18 -13 -30 -28z"/>
<path d="M4869 3635 c-47 -34 -152 -105 -235 -158 -82 -53 -158 -103 -169
-112 -27 -22 51 22 92 52 17 12 34 23 36 23 6 0 148 92 202 131 22 16 67 48
100 71 72 50 69 47 64 52 -2 2 -43 -24 -90 -59z"/>
<path d="M5602 3640 c0 -14 2 -19 5 -12 2 6 2 18 0 25 -3 6 -5 1 -5 -13z"/>
<path d="M4181 3631 c-14 -4 -26 -12 -29 -20 -3 -9 4 -9 27 3 17 9 31 19 31
21 0 3 -1 5 -2 4 -2 -1 -14 -4 -27 -8z"/>
<path d="M5592 3585 c0 -16 2 -22 5 -12 2 9 2 23 0 30 -3 6 -5 -1 -5 -18z"/>
<path d="M3589 3568 c-10 -32 2 -61 15 -39 4 5 2 12 -4 16 -6 4 -8 11 -5 16 4
5 4 9 1 9 -3 0 -6 -1 -7 -2z"/>
<path d="M5581 3534 c0 -11 3 -14 6 -6 3 7 2 16 -1 19 -3 4 -6 -2 -5 -13z"/>
<path d="M440 3468 c-57 -99 -62 -131 -69 -413 -5 -220 -9 -265 -23 -292 -32
-57 -76 -78 -210 -98 l-38 -6 0 -123 0 -123 67 -6 c95 -9 151 -40 182 -101 23
-45 25 -61 32 -265 6 -196 9 -223 32 -290 42 -120 100 -186 205 -232 53 -23
174 -46 270 -52 l72 -4 0 128 0 129 -40 0 c-65 0 -139 20 -171 47 -59 50 -63
66 -69 323 -5 232 -5 236 -33 292 -33 67 -82 112 -149 134 l-48 16 47 24 c74
37 119 79 150 142 l28 57 -3 205 c-2 196 3 255 33 346 5 17 -3 26 -52 56 -32
20 -85 64 -116 97 -32 34 -60 61 -63 61 -2 0 -17 -24 -34 -52z"/>
<path d="M3603 3495 c0 -8 4 -12 9 -9 5 3 6 10 3 15 -9 13 -12 11 -12 -6z"/>
<path d="M5561 3454 c0 -11 3 -14 6 -6 3 7 2 16 -1 19 -3 4 -6 -2 -5 -13z"/>
<path d="M5546 3415 c-3 -9 -6 -22 -5 -28 0 -7 5 -1 10 12 5 13 8 26 5 28 -2
2 -6 -3 -10 -12z"/>
<path d="M3635 3379 c-3 -4 2 -6 10 -5 21 3 28 13 10 13 -9 0 -18 -4 -20 -8z"/>
<path d="M5517 3328 c-9 -23 -15 -43 -13 -45 2 -2 11 15 20 38 9 23 15 43 13
45 -2 2 -11 -15 -20 -38z"/>
<path d="M4950 3347 c-183 -98 -267 -135 -293 -129 -5 2 -6 -2 -2 -8 3 -5 1
-10 -6 -10 -7 0 -10 -2 -7 -5 11 -11 338 144 338 161 0 6 -2 5 -30 -9z"/>
<path d="M4332 3280 c-56 -39 -102 -74 -102 -79 0 -4 12 -13 28 -20 26 -11 26
-11 7 5 -20 15 -20 16 10 40 17 14 60 45 98 70 59 40 75 54 64 54 -2 0 -49
-32 -105 -70z"/>
<path d="M3582 3272 c2 -8 7 -13 12 -12 5 1 13 -4 18 -12 8 -11 9 -11 6 0 -2
8 -7 13 -12 12 -5 -1 -13 4 -18 12 -8 11 -9 11 -6 0z"/>
<path d="M5467 3221 c-24 -42 -21 -52 4 -13 12 18 20 35 17 37 -2 2 -12 -9
-21 -24z"/>
<path d="M3840 3086 l0 -154 33 -20 c45 -27 365 -192 372 -192 18 0 -28 29
-85 54 -36 16 -72 34 -80 40 -8 7 -34 20 -57 31 -23 10 -40 22 -36 28 3 6 1 7
-5 3 -7 -4 -12 -2 -12 5 0 7 -3 9 -7 6 -3 -4 -12 -2 -20 4 -7 6 -13 8 -13 3 0
-5 -4 -4 -8 1 -4 6 -20 17 -37 25 l-30 16 -3 142 c-1 78 0 142 3 142 9 0 162
-78 225 -115 46 -27 301 -165 525 -285 33 -18 75 -41 93 -52 18 -11 35 -18 38
-15 5 4 -548 307 -783 430 l-113 58 0 -155z"/>
<path d="M4570 3165 c-14 -8 -20 -14 -15 -14 6 0 21 6 35 14 14 8 21 14 15 14
-5 0 -21 -6 -35 -14z"/>
<path d="M4295 3162 c16 -13 67 -33 61 -23 -3 5 -20 14 -38 20 -18 6 -28 8
-23 3z"/>
<path d="M5422 3143 c-32 -47 -38 -60 -21 -46 15 13 53 73 45 73 -2 0 -13 -12
-24 -27z"/>
<path d="M4510 3140 c-8 -5 -10 -10 -5 -10 6 0 17 5 25 10 8 5 11 10 5 10 -5
0 -17 -5 -25 -10z"/>
<path d="M4462 3124 c-14 -16 -5 -18 17 -5 7 5 9 11 5 14 -5 3 -15 -1 -22 -9z"/>
<path d="M4388 3114 c12 -8 30 -13 40 -11 13 4 12 5 -5 6 -12 0 -25 6 -28 11
-3 6 -11 10 -18 10 -6 0 -1 -7 11 -16z"/>
<path d="M5344 3033 c-57 -72 -124 -134 -137 -126 -7 3 -9 3 -5 -2 8 -8 -1
-18 -53 -57 -20 -15 -39 -25 -42 -22 -2 3 -7 -3 -11 -12 -6 -15 -4 -15 21 1
92 58 202 162 259 244 28 39 5 21 -32 -26z"/>
<path d="M772 2992 c8 -128 49 -185 178 -246 93 -44 252 -86 480 -126 273 -48
404 -78 524 -120 60 -22 112 -38 113 -36 2 2 -32 37 -76 79 -167 157 -371 255
-700 339 -237 60 -352 98 -450 148 l-73 39 4 -77z"/>
<path d="M4750 2746 c0 -2 7 -7 16 -10 8 -3 12 -2 9 4 -6 10 -25 14 -25 6z"/>
<path d="M4790 2726 c0 -2 33 -24 74 -47 41 -23 76 -49 78 -58 2 -9 1 -52 -2
-96 -4 -68 -8 -80 -22 -79 -10 1 -16 -2 -13 -6 2 -4 -22 -22 -55 -39 -33 -18
-60 -34 -60 -37 0 -3 36 14 81 38 l81 43 2 93 c1 51 0 96 -3 100 -8 11 -161
95 -161 88z"/>
<path d="M4260 2715 c0 -6 76 -45 87 -45 4 0 3 4 -2 9 -12 11 -85 42 -85 36z"/>
<path d="M4360 2665 c0 -7 141 -77 146 -72 2 2 -19 14 -46 27 -28 13 -56 30
-62 37 -10 12 -38 18 -38 8z"/>
<path d="M4535 2578 c11 -6 25 -17 32 -25 7 -9 13 -10 17 -4 4 6 -7 17 -23 26
-34 17 -57 20 -26 3z"/>
<path d="M4295 2401 c-143 -76 -305 -163 -360 -193 l-100 -55 -3 -156 -3 -157
58 34 c32 18 98 54 146 80 49 26 86 50 84 52 -3 3 -28 -9 -57 -26 -29 -17 -59
-29 -67 -26 -8 3 -12 2 -8 -3 5 -9 -114 -81 -134 -81 -6 0 -9 47 -7 137 l3
138 44 26 c41 24 79 44 314 169 44 24 132 71 196 105 64 35 126 66 137 70 12
3 22 11 22 16 0 5 -1 9 -2 9 -2 0 -120 -63 -263 -139z"/>
<path d="M1107 2455 c20 -25 64 -67 98 -94 177 -143 338 -209 640 -261 178
-31 204 -38 269 -73 65 -35 126 -103 147 -164 20 -57 15 -207 -9 -275 -10 -32
-16 -58 -12 -58 14 0 106 107 134 153 108 186 53 420 -131 546 -68 46 -222 89
-383 105 -427 44 -570 72 -725 141 -32 14 -59 25 -62 25 -2 0 13 -20 34 -45z"/>
<path d="M4702 2341 c3 -15 -111 -83 -124 -75 -5 3 -8 1 -8 -4 0 -15 -139 -84
-152 -76 -6 4 -8 3 -5 -3 3 -5 -25 -26 -64 -47 -38 -21 -69 -40 -69 -43 0 -2
33 13 73 35 39 21 147 79 240 127 92 48 165 90 162 93 -2 3 -11 0 -18 -6 -10
-9 -17 -8 -26 1 -10 9 -12 9 -9 -2z"/>
<path d="M4198 2054 c-38 -19 -68 -37 -68 -39 0 -3 32 11 70 30 39 19 70 37
70 40 0 7 3 8 -72 -31z"/>
<path d="M3265 1808 c-231 -208 -303 -278 -377 -367 -165 -200 -249 -389 -264
-601 -16 -206 57 -449 173 -576 25 -27 38 -37 29 -22 -12 21 -13 29 -3 34 6 4
9 4 5 -1 -4 -4 2 -21 14 -38 12 -17 17 -27 10 -23 -23 14 -12 -11 18 -39 24
-23 33 -27 39 -16 6 9 11 10 15 2 4 -6 1 -11 -6 -11 -12 -1 60 -70 73 -70 4 0
-11 33 -32 74 -74 140 -116 370 -106 570 13 254 84 438 279 720 90 130 115
180 42 83 -21 -28 -42 -53 -46 -55 -5 -2 -8 -8 -8 -14 0 -18 -51 -79 -61 -73
-5 3 -6 -1 -3 -9 3 -9 1 -16 -5 -16 -6 0 -10 -4 -9 -9 4 -12 -55 -121 -65
-121 -5 0 -5 5 -1 12 5 7 3 8 -5 3 -9 -5 -10 -10 -2 -18 14 -14 -49 -138 -68
-132 -12 5 -12 3 0 -12 12 -15 12 -16 -3 -10 -10 3 -20 1 -24 -5 -4 -6 -3 -8
4 -5 7 5 9 -7 5 -35 -5 -52 -23 -139 -31 -153 -3 -5 -6 -19 -7 -30 -4 -63 -8
-88 -12 -72 -6 24 -23 22 -18 -3 2 -11 0 -22 -6 -25 -5 -4 -9 -18 -9 -32 0
-21 3 -23 14 -13 8 6 17 21 19 33 4 18 5 17 6 -5 0 -16 -4 -28 -11 -28 -9 0
-8 -4 2 -11 13 -9 12 -10 -2 -5 -10 3 -18 2 -18 -3 0 -5 -9 -11 -20 -14 -14
-4 -18 -10 -13 -23 6 -16 7 -16 13 1 6 17 8 16 12 -7 3 -17 1 -25 -5 -21 -6 3
-16 -2 -24 -13 -12 -16 -13 -15 -8 16 5 29 4 31 -4 13 -6 -13 -13 -23 -15 -23
-7 0 5 32 17 48 8 10 5 12 -14 9 -13 -2 -18 -2 -11 0 7 3 10 8 7 13 -3 4 3 7
13 6 12 -1 16 5 14 19 -2 16 -1 17 7 6 7 -11 10 -9 13 10 1 13 -5 32 -14 41
-19 19 -13 58 8 58 16 0 19 -26 4 -35 -6 -4 -8 -11 -4 -16 3 -5 10 -7 15 -3 5
3 7 10 4 15 -4 5 0 12 9 15 21 8 29 34 10 34 -9 0 -12 -5 -8 -12 4 -6 3 -8 -4
-5 -5 4 -9 15 -7 25 1 9 0 11 -2 4 -3 -7 -12 -12 -21 -11 -23 3 -53 -11 -46
-22 3 -5 0 -17 -6 -26 -7 -12 -10 -13 -7 -3 2 8 1 25 -4 36 -4 12 -5 25 -1 28
10 10 13 48 3 42 -5 -3 -7 3 -4 14 3 11 0 27 -8 36 -7 8 -8 14 -3 12 5 -2 9 2
9 7 0 6 -4 9 -8 7 -5 -1 -6 2 -2 8 3 6 10 8 13 6 4 -2 6 13 4 35 -2 21 -7 37
-11 34 -4 -2 -8 2 -8 10 0 8 5 13 11 12 7 -1 10 16 8 46 -1 28 2 47 8 47 6 0
8 -6 4 -12 -6 -10 -4 -10 8 0 13 11 16 9 16 -13 0 -22 -3 -24 -16 -13 -13 12
-14 10 -3 -10 10 -19 10 -27 -1 -40 -12 -16 -11 -16 6 -2 18 13 19 13 14 -1
-3 -9 -2 -22 4 -30 8 -11 9 -11 4 3 -7 22 23 55 34 38 5 -8 9 -7 13 3 4 11 -2
14 -23 12 -26 -2 -28 0 -25 26 4 35 14 51 26 44 5 -3 6 1 2 10 -5 13 -7 14
-14 3 -6 -9 -9 -6 -9 10 0 13 4 21 9 17 6 -3 8 4 6 15 -2 11 0 20 6 20 5 0 9
-6 9 -14 0 -7 8 -20 18 -27 15 -13 16 -12 3 3 -7 10 -11 24 -8 31 3 7 -4 19
-14 25 -22 14 -26 34 -4 26 8 -4 12 -11 8 -18 -3 -6 -3 -8 2 -4 4 4 13 4 19
-2 7 -5 17 -5 26 1 13 8 12 9 -2 7 -9 -2 -17 0 -17 5 -2 21 0 27 10 27 5 0 8
-4 5 -8 -3 -5 1 -9 9 -9 10 0 12 4 5 12 -5 7 -8 15 -5 18 3 4 2 5 -2 2 -3 -3
-12 0 -20 7 -11 9 -12 7 -7 -8 5 -15 4 -16 -4 -4 -12 16 -6 33 9 25 5 -4 9 -1
9 4 0 6 5 11 11 11 5 0 7 -6 3 -12 -4 -7 -3 -9 1 -5 16 14 14 36 -3 30 -13 -3
-12 0 3 14 12 10 24 26 28 37 7 18 8 18 26 2 14 -13 21 -14 27 -5 4 7 3 10 -3
6 -6 -4 -16 0 -23 8 -9 11 0 25 48 74 33 33 62 64 64 68 5 13 104 103 113 103
4 0 0 -10 -11 -22 -19 -22 -19 -22 0 -8 11 8 21 14 23 13 11 -9 13 -1 3 12
-12 14 -7 19 13 16 5 -1 6 3 2 9 -3 6 4 14 17 19 13 4 22 11 20 15 -2 4 23 30
55 58 32 28 60 55 61 59 8 19 22 7 23 -18 1 -21 4 -16 14 22 8 27 13 50 12 51
-1 1 -47 -39 -102 -88z m-449 -525 c-3 -4 -6 -1 -6 6 0 7 -4 9 -10 6 -6 -4 -7
1 -3 11 6 15 7 15 15 -1 6 -9 7 -19 4 -22z m-39 -35 c-2 -13 -7 -31 -12 -40
-4 -10 -5 -24 -2 -32 4 -9 0 -13 -11 -12 -18 3 -30 26 -13 26 6 0 10 3 9 8 -3
8 22 72 29 72 2 0 2 -10 0 -22z m-120 -290 c-3 -8 -6 -5 -6 6 -1 11 2 17 5 13
3 -3 4 -12 1 -19z m-10 -60 c-3 -8 -6 -5 -6 6 -1 11 2 17 5 13 3 -3 4 -12 1
-19z m116 -88 c-3 -12 -8 -19 -11 -16 -5 6 5 36 12 36 2 0 2 -9 -1 -20z m10
-77 c-7 -3 -13 -12 -13 -21 -1 -10 -7 -5 -16 13 -9 20 -13 23 -10 9 2 -12 -1
-28 -6 -35 -8 -11 -9 -11 -5 1 2 8 0 25 -4 38 -6 15 -5 21 1 17 6 -3 13 1 16
9 5 13 9 12 27 -6 15 -14 18 -22 10 -25z m-126 -85 c-3 -8 -6 -5 -6 6 -1 11 2
17 5 13 3 -3 4 -12 1 -19z m186 -59 c-5 -5 -7 7 -4 29 5 34 6 35 9 8 2 -16 0
-32 -5 -37z m-176 9 c-3 -8 -6 -5 -6 6 -1 11 2 17 5 13 3 -3 4 -12 1 -19z
m105 -22 c7 4 8 2 4 -5 -10 -15 -26 -4 -25 17 1 15 2 15 6 -1 2 -9 9 -14 15
-11z m43 14 c3 -6 -1 -7 -9 -4 -18 7 -21 14 -7 14 6 0 13 -4 16 -10z m-9 -34
c1 -7 -4 -13 -12 -13 -9 0 -11 4 -4 12 5 7 8 15 5 18 -3 4 -2 5 2 2 4 -3 8
-11 9 -19z m4 -49 c0 -7 -4 -6 -10 3 -8 12 -10 12 -10 1 0 -8 -3 -12 -6 -8 -9
9 6 28 17 22 5 -4 9 -12 9 -18z m67 -115 c12 -68 13 -96 5 -104 -8 -8 -9 -5
-5 12 4 15 2 21 -5 16 -6 -3 -14 -2 -17 4 -4 6 -3 9 2 8 10 -4 13 5 13 38 0
14 -4 23 -9 19 -5 -3 -13 0 -17 6 -4 7 -3 9 4 5 7 -4 9 16 7 66 -2 40 -2 62 1
48 2 -14 12 -67 21 -118z m-40 76 c-3 -7 -5 -2 -5 12 0 14 2 19 5 13 2 -7 2
-19 0 -25z m-123 -4 c3 -8 2 -12 -4 -9 -6 3 -10 10 -10 16 0 14 7 11 14 -7z
m39 -71 c-3 -7 -9 -10 -14 -7 -14 8 -11 21 5 21 8 0 12 -6 9 -14z m52 -12 c3
-5 2 -12 -3 -15 -5 -3 -9 1 -9 9 0 17 3 19 12 6z m-16 -36 c8 0 15 -7 16 -16
2 -9 -3 -16 -11 -16 -11 0 -11 3 -1 16 10 12 9 14 -5 8 -12 -4 -21 1 -28 16
-9 18 -9 20 2 7 7 -8 19 -15 27 -15z m126 -134 c3 -5 2 -12 -3 -15 -5 -3 -9 1
-9 9 0 17 3 19 12 6z"/>
<path d="M2746 747 c3 -10 9 -15 12 -12 3 3 0 11 -7 18 -10 9 -11 8 -5 -6z"/>
<path d="M3315 1811 c-3 -5 -2 -12 3 -15 5 -3 9 1 9 9 0 17 -3 19 -12 6z"/>
<path d="M3350 1747 c4 -41 5 -41 8 -8 2 18 0 37 -5 42 -5 5 -6 -11 -3 -34z"/>
<path d="M3326 1767 c3 -10 9 -15 12 -12 3 3 0 11 -7 18 -10 9 -11 8 -5 -6z"/>
<path d="M3360 1690 c0 -8 15 -62 34 -120 19 -58 36 -114 39 -125 l5 -20 0 20
c1 11 -17 74 -38 140 -21 66 -39 113 -40 105z"/>
<path d="M3220 1550 c0 -3 7 -30 15 -60 19 -72 19 -204 -1 -290 -8 -39 -37
-112 -63 -163 -51 -101 -63 -127 -56 -127 10 0 96 184 121 257 20 61 26 96 25
166 0 88 -16 193 -33 212 -4 5 -8 7 -8 5z"/>
<path d="M2963 1486 c-3 -6 -3 -8 2 -4 4 4 13 3 20 -2 8 -7 12 -5 12 3 0 16
-25 18 -34 3z"/>
<path d="M2924 1449 c-4 -7 -3 -9 4 -5 5 3 13 0 15 -6 4 -9 6 -10 6 -1 1 17
-16 25 -25 12z"/>
<path d="M3271 1404 c0 -11 3 -14 6 -6 3 7 2 16 -1 19 -3 4 -6 -2 -5 -13z"/>
<path d="M3442 1339 c-1 -48 -4 -102 -7 -120 l-5 -34 10 33 c6 18 9 72 7 120
l-3 87 -2 -86z"/>
<path d="M2893 1403 c4 -3 1 -13 -6 -22 -11 -14 -10 -14 5 -2 16 12 16 31 1
31 -4 0 -3 -3 0 -7z"/>
<path d="M2903 1358 c1 -7 -4 -12 -11 -10 -8 1 -11 -2 -7 -8 5 -8 11 -8 21 1
7 6 11 15 8 20 -8 13 -14 11 -11 -3z"/>
<path d="M2826 1231 c-3 -5 1 -14 8 -21 8 -6 13 -20 11 -30 -2 -11 0 -22 4
-24 12 -8 7 40 -7 56 -6 8 -9 18 -5 21 3 4 4 7 0 7 -3 0 -8 -4 -11 -9z"/>
<path d="M2819 1175 c-1 -3 -2 -11 -3 -17 0 -7 -6 -13 -13 -13 -6 0 -14 -3
-18 -7 -4 -3 0 -5 9 -4 8 1 19 5 22 9 4 4 14 1 23 -5 12 -10 12 -7 -2 8 -9 11
-14 24 -10 27 3 4 3 7 0 7 -4 0 -8 -2 -8 -5z"/>
<path d="M2869 1148 c-5 -18 -6 -38 -1 -34 7 8 12 36 6 36 -2 0 -4 -1 -5 -2z"/>
<path d="M3394 1113 c-47 -90 -63 -114 -119 -189 -33 -43 -64 -84 -70 -91 -5
-6 -21 -28 -35 -47 -14 -20 -31 -36 -38 -36 -8 0 -12 -6 -9 -12 2 -7 -9 -37
-25 -66 -17 -29 -34 -65 -38 -80 -7 -24 -8 -22 -9 16 -1 24 3 41 7 38 5 -3 9
1 9 9 0 8 -4 12 -9 9 -22 -14 -2 82 46 221 4 11 0 7 -9 -8 -41 -71 -70 -223
-60 -317 l7 -65 22 65 c36 103 67 156 188 317 62 83 126 176 142 208 31 62 31
87 0 28z"/>
<path d="M2839 1086 c5 -6 7 -19 5 -29 -1 -11 0 -16 4 -12 12 12 9 52 -4 52
-9 0 -10 -5 -5 -11z"/>
<path d="M2816 1047 c-6 -31 -8 -32 -46 -29 -25 3 -40 0 -40 -7 0 -18 31 -25
41 -10 7 11 12 12 29 2 11 -7 21 -13 22 -13 2 0 4 20 5 45 2 53 -2 58 -11 12z"/>
<path d="M2720 1056 c0 -2 8 -10 18 -17 15 -13 16 -12 3 4 -13 16 -21 21 -21
13z"/>
<path d="M2780 1051 c0 -6 4 -13 10 -16 6 -3 7 1 4 9 -7 18 -14 21 -14 7z"/>
<path d="M2839 1011 c6 -10 7 -22 3 -26 -4 -5 -1 -5 6 -1 9 5 9 12 2 27 -6 10
-13 19 -16 19 -2 0 0 -8 5 -19z"/>
<path d="M2775 981 c-3 -5 0 -13 6 -17 8 -5 9 -3 4 6 -6 10 -4 12 9 7 10 -4
15 -3 11 3 -8 13 -22 13 -30 1z"/>
<path d="M2737 957 c-9 -14 -12 -29 -7 -37 4 -7 7 -24 5 -38 -3 -25 -2 -25 11
-7 12 16 14 17 14 2 0 -9 -9 -21 -21 -27 -11 -7 -18 -14 -15 -17 3 -3 12 -1
19 6 8 6 22 9 31 5 11 -4 16 -1 16 12 0 16 -2 17 -10 4 -8 -12 -10 -11 -10 7
0 28 31 25 45 -5 5 -12 13 -22 18 -22 4 0 4 8 -2 17 -7 13 -5 23 7 38 17 20
17 20 -4 2 -20 -16 -34 -14 -34 5 0 5 4 7 9 3 5 -3 13 0 17 6 5 8 3 9 -6 4 -9
-6 -12 -4 -8 7 4 8 2 21 -4 29 -8 11 -9 10 -4 -3 4 -14 0 -17 -17 -14 -12 2
-21 9 -19 16 1 7 -2 8 -9 4 -9 -5 -10 -2 -6 9 9 24 2 21 -16 -6z m22 -40 c1 6
9 10 19 9 9 -2 16 -6 15 -9 -2 -4 -3 -13 -3 -19 0 -9 -4 -8 -10 2 -5 8 -10 10
-10 4 0 -6 -6 -11 -13 -11 -8 0 -13 13 -14 31 -1 29 -1 30 7 6 4 -14 8 -20 9
-13z"/>
<path d="M2836 928 c3 -5 10 -6 15 -3 13 9 11 12 -6 12 -8 0 -12 -4 -9 -9z"/>
<path d="M2775 680 c-3 -6 1 -7 9 -4 18 7 21 14 7 14 -6 0 -13 -4 -16 -10z"/>
</g>
</svg>
