<svg width="32" height="32" viewBox="0 0 32 32" role="img" xmlns="http://www.w3.org/2000/svg">
  <title>JavaScript</title>
  <path fill="currentColor" d="M1 1h30v30H1V1Zm16.31 13.79h-2.81c0 2.42-.01 4.83-.01 7.25.03.33.05.71.05 1.1 0 .81-.08 1.6-.24 2.37-.41.86-1.47.75-1.96.6a2.2 2.2 0 0 1-1.03-1.06l-.15-.33-2.28 1.4a5.02 5.02 0 0 0 1.65 1.9 5.4 5.4 0 0 0 2.65.68c.48 0 .95-.06 1.4-.18a3.58 3.58 0 0 0 2.26-1.76c.36-.91.57-1.97.57-3.08 0-.39-.03-.77-.08-1.15.02-2.57 0-5.13 0-7.74Zm11.23 9.05c-.22-1.37-1.11-2.52-3.75-3.59-.92-.43-1.94-.73-2.25-1.43a1.45 1.45 0 0 1-.06-.88 1.44 1.44 0 0 1 1.9-.82c.55.19.99.59 1.22 1.12l2.19-1.4a5.06 5.06 0 0 0-.73-.98 4.2 4.2 0 0 0-3.56-1.29l-.88.11a3.94 3.94 0 0 0-2.13 1.25 3.9 3.9 0 0 0-.86 2.45c0 1.28.62 2.42 1.57 3.14 1.7 1.27 4.2 1.55 4.52 2.75.3 1.46-1.09 1.93-2.46 1.76a3.18 3.18 0 0 1-2.19-1.67l-2.28 1.31c.27.54.61 1 1.01 1.39 2.17 2.2 7.61 2.08 8.59-1.25.11-.37.18-.79.18-1.22 0-.3-.03-.59-.09-.87Z"/>
</svg>
