<svg width="32" height="32" viewBox="0 0 32 32" role="img" xmlns="http://www.w3.org/2000/svg">
  <title>Java</title>
  <path fill="currentColor" d="M16.05 8.44C22.64 3.33 19.26 0 19.26 0c.5 5.29-5.45 6.54-7.04 10.17-1.09 2.48.75 4.65 3.83 7.39-.27-.61-.7-1.2-1.12-1.79-1.45-2.03-2.96-4.15 1.12-7.32Zm1.05 10.24s1.98-1.6.41-3.38C12.19 9.27 23.33 6.54 23.33 6.54c-6.8 3.27-5.79 5.22-4.07 7.58 1.83 2.54-2.16 4.56-2.16 4.56Zm5.84 4.77c6.1-3.12 3.28-6.12 1.31-5.72-.48.1-.7.19-.7.19s.18-.28.52-.4c3.9-1.35 6.9 3.97-1.26 6.08 0 0 .1-.08.13-.15ZM10.23 19.5c-3.82-.5 2.1-1.88 2.1-1.88s-2.3-.16-5.12 1.18c-3.34 1.6 8.26 2.32 14.26.77.63-.42 1.49-.78 1.49-.78s-2.46.43-4.9.63c-3 .25-6.21.3-7.83.08Zm1.46 2.98c-2.13-.22-.74-1.24-.74-1.24-5.51 1.8 3.07 3.84 10.77 1.63-.82-.29-1.34-.8-1.34-.8-3.76.71-5.94.69-8.69.41Zm.92 3.22c-2.12-.24-.88-.95-.88-.95-5 1.37 3.04 4.21 9.41 1.53-1.04-.4-1.79-.86-1.79-.86-2.84.53-4.16.57-6.74.28Zm13.33 1.64s.92.74-1.01 1.32c-3.68 1.1-15.31 1.43-18.54.04-1.16-.49 1.02-1.18 1.7-1.32.72-.15 1.13-.12 1.13-.12-1.3-.9-8.35 1.75-3.59 2.51 12.99 2.07 23.68-.93 20.31-2.43ZM28 28.97c-.21 2.72-9.21 3.3-15.07 2.93-3.82-.24-4.59-.84-4.6-.85 3.66.59 9.82.7 14.83-.23C27.59 30 28 28.97 28 28.97Z"/>
</svg>
