<svg width="32" height="32" viewBox="0 0 32 32" role="img" xmlns="http://www.w3.org/2000/svg">
  <title>Python</title>
  <path fill="currentColor" fill-rule="evenodd" clip-rule="evenodd" d="M13.02 2h5.96a3.9 3.9 0 0 1 3.98 3.85v6.52a3.3 3.3 0 0 1-3.36 3.26h-7.35a3.9 3.9 0 0 0-3.98 3.85v3.26H5.98A3.9 3.9 0 0 1 2 18.89v-5.78a3.9 3.9 0 0 1 3.98-3.85h9.94v-.74H9.04V5.85A3.9 3.9 0 0 1 13.02 2Zm-.92 4.74c.76 0 1.38-.6 1.38-1.33s-.62-1.34-1.38-1.34c-.76 0-1.38.6-1.38 1.34s.62 1.33 1.38 1.33Zm6.88 23.26h-5.96a3.9 3.9 0 0 1-3.98-3.85v-6.52a3.3 3.3 0 0 1 3.36-3.26h7.35a3.9 3.9 0 0 0 3.98-3.85V9.26h2.3A3.9 3.9 0 0 1 30 13.11v5.78a3.9 3.9 0 0 1-3.98 3.85h-9.94v.74h6.88v2.67A3.9 3.9 0 0 1 18.98 30Zm.92-4.74c-.76 0-1.38.6-1.38 1.33s.62 1.34 1.38 1.34c.76 0 1.38-.6 1.38-1.34s-.62-1.33-1.38-1.33Z"/>
</svg>
